<!DOCTYPE svg PUBLIC "-//W3C//DTD SVG 20010904//EN" "http://www.w3.org/TR/2001/REC-SVG-20010904/DTD/svg10.dtd">
<svg version="1.0" xmlns="http://www.w3.org/2000/svg" width="761px" height="761px" viewBox="0 0 7610 7610" preserveAspectRatio="xMidYMid meet">
<g id="layer101" fill="#000000" stroke="none">
 <path d="M421 7594 c-145 -39 -285 -150 -353 -280 -74 -141 -68 178 -68 -3509 0 -3687 -6 -3368 68 -3509 48 -92 136 -180 228 -228 141 -74 -178 -68 3509 -68 3687 0 3368 -6 3509 68 92 48 180 136 228 228 74 141 68 -178 68 3509 0 3687 6 3368 -68 3509 -48 92 -136 180 -228 228 -141 74 179 68 -3514 67 -2867 0 -3332 -2 -3379 -15z"/>
 </g>
<g id="layer102" fill="#ffffff" stroke="none">
 <path d="M2830 6314 c-540 -27 -861 -144 -1130 -414 -236 -235 -358 -522 -402 -940 -19 -179 -19 -2141 0 -2320 44 -418 166 -705 402 -940 235 -236 522 -358 940 -402 179 -19 2141 -19 2320 0 418 44 705 166 940 402 236 235 358 522 402 940 19 179 19 2141 0 2320 -44 418 -166 705 -402 940 -230 231 -513 354 -920 401 -74 8 -396 13 -1095 14 -545 1 -1019 0 -1055 -1z m2070 -473 c58 -6 141 -18 185 -27 399 -78 647 -326 729 -724 37 -183 41 -309 41 -1290 0 -981 -4 -1107 -41 -1290 -81 -397 -327 -643 -724 -724 -183 -37 -309 -41 -1290 -41 -981 0 -1107 4 -1290 41 -399 82 -646 330 -724 729 -33 166 -38 296 -43 1100 -5 796 3 1203 27 1380 68 491 346 768 840 835 47 7 162 15 255 20 250 12 1907 4 2035 -9z"/>
 <path d="M3635 5089 c-305 -41 -562 -173 -775 -395 -239 -249 -354 -540 -354 -894 0 -358 116 -648 362 -902 255 -264 560 -392 932 -392 372 0 677 128 932 392 246 254 362 544 362 902 0 358 -116 648 -362 902 -191 198 -419 322 -685 373 -101 20 -317 27 -412 14z m400 -489 c276 -88 479 -293 567 -570 20 -65 23 -95 23 -230 0 -135 -3 -165 -23 -230 -88 -279 -293 -484 -572 -572 -65 -20 -95 -23 -230 -23 -135 0 -165 3 -230 23 -279 88 -484 293 -572 572 -20 65 -23 95 -23 230 0 135 3 165 23 230 96 303 338 526 643 590 24 5 107 8 184 6 111 -3 155 -8 210 -26z"/>
 <path d="M5030 2743 c-63 -23 -151 -113 -173 -177 -9 -27 -17 -77 -17 -111 0 -92 24 -151 89 -216 66 -66 124 -89 220 -89 167 0 301 135 301 301 0 36 -8 88 -17 115 -23 67 -110 154 -177 177 -61 21 -166 21 -226 0z"/>
 </g>

</svg>