<!DOCTYPE svg PUBLIC "-//W3C//DTD SVG 20010904//EN" "http://www.w3.org/TR/2001/REC-SVG-20010904/DTD/svg10.dtd">
<svg version="1.0" xmlns="http://www.w3.org/2000/svg" width="400px" height="400px" viewBox="0 0 4000 4000" preserveAspectRatio="xMidYMid meet">
<g id="layer101" fill="#050707" stroke="none">
 <path d="M174 3976 c-65 -30 -120 -85 -150 -150 l-24 -51 0 -1775 0 -1775 24 -51 c30 -65 85 -120 150 -150 l51 -24 1775 0 1775 0 51 24 c65 30 120 85 150 150 l24 51 0 1775 0 1775 -24 51 c-30 65 -85 120 -150 150 l-51 24 -1775 0 -1775 0 -51 -24z"/>
 </g>
<g id="layer102" fill="#ffffff" stroke="none">
 <path d="M1400 3009 c-183 -17 -339 -63 -520 -152 l-125 -62 145 -6 c229 -9 370 -55 562 -180 47 -30 48 -39 4 -39 -54 0 -157 -36 -222 -78 -89 -58 -169 -154 -202 -242 l-10 -25 97 -1 c123 0 141 -10 65 -36 -117 -39 -228 -137 -285 -250 -30 -59 -59 -162 -59 -210 l0 -27 58 24 c33 13 83 27 113 30 l54 7 -46 -41 c-61 -53 -116 -137 -145 -220 -18 -51 -24 -87 -24 -161 0 -99 8 -140 41 -218 l20 -46 60 66 c111 123 270 243 428 323 144 72 411 145 531 145 l37 0 -5 -75 c-12 -192 74 -364 232 -467 186 -120 449 -104 605 37 21 19 48 35 59 35 33 0 181 -49 246 -82 32 -16 60 -28 62 -26 6 7 -54 117 -87 158 -19 24 -54 58 -79 78 l-45 34 50 -7 c28 -4 89 -19 138 -35 48 -15 87 -26 87 -23 0 16 -114 144 -174 196 l-71 61 -6 135 c-27 564 -385 1078 -894 1282 -129 51 -288 87 -441 98 -77 6 -146 10 -154 10 -8 -1 -53 -5 -100 -10z"/>
 </g>

</svg>